<?xml version="1.0" standalone="no"?>
<!DOCTYPE svg PUBLIC "-//W3C//DTD SVG 20010904//EN"
 "http://www.w3.org/TR/2001/REC-SVG-20010904/DTD/svg10.dtd">
<svg version="1.0" xmlns="http://www.w3.org/2000/svg"
 width="16.000000pt" height="16.000000pt" viewBox="0 0 16.000000 16.000000"
 preserveAspectRatio="xMidYMid meet">
<metadata>
Created by potrace 1.11, written by Peter Selinger 2001-2013
</metadata>
<g transform="translate(0.000000,16.000000) scale(0.006250,-0.006250)"
fill="#000000" stroke="none">
<path d="M1987 2438 c-9 -31 -2 -33 11 -3 6 14 8 25 3 25 -5 0 -11 -10 -14
-22z"/>
<path d="M1920 2411 c-13 -19 -15 -20 -33 -3 -18 16 -20 15 -42 -11 -13 -15
-29 -27 -35 -27 -5 0 -10 -7 -10 -15 0 -8 -4 -15 -9 -15 -5 0 -23 -28 -41 -62
-17 -35 -43 -75 -57 -89 -28 -27 -53 -95 -53 -143 0 -18 -10 -41 -26 -57 -14
-15 -27 -38 -27 -51 -2 -20 -7 -23 -42 -23 -48 0 -81 17 -71 36 3 8 24 47 46
88 22 41 40 80 40 88 0 12 15 18 70 26 14 3 0 5 -31 6 -42 1 -63 7 -89 26 -37
27 -66 26 -112 -6 -21 -15 -45 -19 -117 -19 l-91 0 0 -127 c0 -90 3 -124 11
-116 6 6 10 54 10 117 l-1 106 81 0 c73 0 80 -2 74 -17 -4 -10 -10 -44 -13
-75 -4 -50 -1 -59 21 -84 20 -21 31 -25 51 -20 14 3 26 2 26 -3 0 -15 -60 -31
-110 -30 -61 2 -143 -6 -157 -14 -6 -4 -14 -23 -17 -42 -7 -33 -9 -35 -49 -36
-23 0 -36 -3 -29 -6 6 -2 12 -13 12 -24 0 -25 26 -25 33 1 8 32 23 23 39 -22
8 -24 19 -51 23 -60 7 -17 -7 -18 -204 -18 -116 0 -211 -3 -211 -6 0 -3 11
-15 25 -26 14 -11 25 -28 25 -39 0 -25 -20 -25 -27 1 -10 39 -26 21 -20 -24 4
-29 2 -49 -7 -62 -8 -10 -11 -25 -8 -33 5 -12 -7 -13 -73 -8 -43 4 -84 12 -91
18 -8 6 -17 27 -20 47 -6 30 -8 33 -14 17 -6 -17 -10 -14 -31 23 -13 23 -27
42 -31 42 -4 0 -18 -18 -30 -40 -15 -25 -30 -40 -43 -40 -17 0 -17 -2 -5 -10
28 -18 -9 -11 -48 10 -65 34 -64 33 -47 72 8 20 21 38 29 40 10 2 6 9 -12 22
-22 17 -25 17 -19 3 3 -9 3 -27 -2 -38 -6 -19 -9 -16 -21 24 -7 26 -19 52 -26
58 -10 8 -11 16 -3 30 14 27 -19 37 -101 32 -84 -6 -97 -10 -81 -26 7 -7 40
-12 79 -12 l67 0 3 -39 c3 -29 0 -36 -9 -30 -7 4 -27 9 -44 11 -16 1 -46 5
-65 8 l-35 5 35 -19 c19 -11 56 -23 83 -27 52 -7 74 -24 32 -24 -37 0 -165 40
-165 51 0 5 -8 9 -17 8 -11 0 -13 -3 -5 -6 25 -10 11 -19 -23 -15 l-35 4 0
-846 0 -846 826 0 c615 0 823 4 818 12 -5 8 -2 9 12 2 10 -5 218 -10 462 -12
l442 -3 0 295 0 295 -47 6 c-110 14 -117 20 -92 66 9 18 18 20 75 15 l64 -5 0
62 0 62 -47 0 c-81 -1 -118 9 -115 28 2 9 -1 17 -5 17 -4 0 -21 12 -38 26 -16
14 -24 22 -16 18 11 -5 13 -3 8 9 -3 10 -2 17 4 17 6 0 7 5 4 10 -8 13 5 13
25 0 8 -5 15 -18 15 -30 0 -20 6 -21 80 -23 l80 -2 3 298 c1 202 -1 297 -8
297 -8 0 -8 6 0 19 6 13 9 137 8 353 -1 183 -5 320 -8 303 -6 -30 -6 -30 -18
-7 -7 12 -16 45 -19 72 -3 28 -13 56 -21 62 -13 11 -14 10 -4 -9 23 -42 12
-45 -30 -7 -24 21 -43 47 -43 58 0 21 -65 46 -123 46 -20 0 -31 4 -27 10 6 10
-43 16 -94 11 -13 -1 -27 3 -32 10 -4 7 -14 9 -25 4 -30 -13 -76 -11 -82 3 -3
10 -9 9 -25 -5 -15 -13 -21 -15 -24 -5 -3 6 -10 9 -16 5 -7 -4 -8 0 -4 11 5
13 3 17 -7 13 -8 -3 -16 1 -18 9 -2 12 -6 11 -18 -5z m97 -63 c-3 -8 -6 -5 -6
6 -1 11 2 17 5 13 3 -3 4 -12 1 -19z m-32 -12 c10 4 12 0 8 -15 -5 -20 -6 -20
-19 -4 -7 10 -13 23 -13 28 0 6 3 5 5 -2 3 -7 11 -10 19 -7z m-25 -91 c8 -8
29 -12 45 -10 18 2 38 -4 49 -13 18 -16 19 -16 14 6 -7 25 12 31 31 9 6 -8 35
-15 71 -16 72 -2 127 -20 195 -64 115 -73 157 -171 121 -279 -8 -24 -20 -79
-27 -124 -10 -70 -10 -85 4 -113 15 -31 15 -32 -4 -26 -15 5 -19 2 -18 -17 0
-13 3 -17 6 -10 7 17 23 15 23 -4 0 -14 3 -14 15 -4 20 17 19 7 -5 -32 -11
-18 -23 -55 -26 -82 -4 -27 -15 -57 -26 -68 -10 -10 -23 -30 -29 -44 -8 -23
-4 -31 30 -67 22 -23 39 -43 37 -44 -9 -10 -55 22 -58 40 -5 33 -25 31 -43 -3
-9 -18 -19 -29 -23 -26 -3 4 0 12 6 18 42 42 -20 28 -70 -15 -41 -36 -43 -52
-4 -22 27 21 53 19 66 -4 10 -20 8 -23 -33 -46 -21 -11 -64 -119 -44 -109 7 3
5 0 -4 -8 -41 -34 -73 -126 -85 -244 -6 -59 -5 -62 47 -150 29 -49 74 -121
101 -161 26 -40 48 -75 48 -78 0 -20 -70 -102 -123 -145 -80 -65 -207 -128
-207 -102 0 5 -11 14 -24 22 -14 7 -27 24 -31 39 -4 14 -28 71 -55 127 -36 75
-58 108 -87 129 -21 16 -40 32 -43 35 -3 3 -32 27 -65 53 -62 48 -77 65 -162
177 -34 44 -60 68 -80 73 -30 9 -53 41 -53 72 0 8 -9 15 -20 15 -22 0 -25 8
-9 30 9 13 10 13 6 -2 -4 -10 1 -18 12 -21 24 -6 50 10 61 36 7 18 9 18 9 5 1
-11 9 -18 21 -18 24 0 26 16 3 28 -15 9 -13 13 16 40 18 16 28 31 21 34 -19 6
-1 35 41 64 21 14 39 33 39 41 0 23 69 46 127 41 37 -3 69 -15 110 -40 32 -19
66 -38 76 -41 29 -11 19 10 -12 24 -16 7 -27 17 -24 23 3 5 2 6 -4 3 -5 -3
-31 9 -57 28 -43 30 -50 54 -12 39 20 -8 21 10 1 30 -21 21 -19 29 5 16 32
-17 231 -72 238 -66 7 8 8 7 -74 44 -39 18 -82 32 -95 32 -14 0 -34 7 -45 15
-10 8 -29 15 -42 15 -13 0 -34 11 -48 25 -14 14 -30 23 -35 20 -15 -10 -10
-45 7 -45 8 0 12 -4 9 -10 -3 -5 0 -10 7 -11 10 0 10 -2 0 -6 -6 -2 -9 -10 -5
-16 4 -7 -1 -6 -10 2 -10 8 -27 11 -42 7 -23 -6 -28 -2 -47 41 -15 33 -21 66
-20 106 1 45 -1 57 -13 57 -16 0 -19 -5 -29 -52 -4 -16 -13 -28 -20 -28 -8 0
-51 -34 -95 -76 -45 -42 -81 -70 -81 -62 0 15 98 103 157 142 29 19 33 26 33
68 0 26 7 80 15 120 9 40 12 74 8 76 -24 8 -33 20 -27 36 5 13 9 14 20 5 8 -7
16 -10 17 -8 7 8 36 197 41 261 3 43 14 84 30 116 55 108 203 193 256 147z
m570 -582 c0 -16 -5 -35 -11 -43 -8 -11 -9 -7 -4 18 4 21 3 32 -5 32 -6 0 -8
5 -5 10 12 19 25 10 25 -17z m-1669 -145 c-8 -22 -41 -35 -41 -16 0 6 -6 5
-15 -2 -15 -12 -35 -7 -22 6 4 4 70 31 84 34 1 0 -1 -10 -6 -22z m-321 -68
c-19 -17 -39 -30 -45 -30 -5 0 6 14 25 30 19 16 40 29 45 29 6 0 -6 -13 -25
-29z m1094 -15 c-4 -8 -8 -15 -10 -15 -2 0 -4 7 -4 15 0 8 4 15 10 15 5 0 7
-7 4 -15z m-1154 -30 c0 -2 -10 -10 -22 -16 -21 -11 -22 -11 -9 4 13 16 31 23
31 12z m1821 -269 c-14 -36 -22 -33 -9 5 6 16 12 28 14 26 3 -2 0 -16 -5 -31z
m-914 -43 c18 -8 33 -20 33 -25 0 -5 -5 -6 -12 -2 -8 5 -9 2 -5 -9 4 -10 2
-16 -6 -14 -7 1 -11 -3 -10 -10 2 -10 -4 -10 -25 -2 -15 6 -47 17 -71 23 l-43
12 26 31 c29 35 32 35 113 -4z m58 -113 c3 -5 2 -10 -4 -10 -5 0 -13 5 -16 10
-3 6 -2 10 4 10 5 0 13 -4 16 -10z m871 -5 c4 -8 3 -26 0 -40 -6 -24 -7 -24
-36 -7 -28 16 -29 17 -9 26 11 5 18 15 15 23 -3 7 1 13 10 13 8 0 17 -7 20
-15z m-1038 -32 c37 -18 50 -33 28 -33 -9 0 -15 -6 -13 -12 1 -7 -4 -12 -12
-10 -8 2 -11 -3 -8 -11 5 -12 -3 -12 -46 1 -29 9 -54 17 -56 19 -3 2 3 19 12
39 19 38 25 39 95 7z m981 -176 c-5 -18 -9 -34 -9 -36 0 -2 -9 4 -19 13 -18
16 -19 31 -5 75 4 11 8 10 23 -3 16 -14 18 -23 10 -49z m107 -41 c3 -8 4 -30
2 -49 -3 -36 -3 -36 -26 -19 -18 14 -21 23 -16 50 7 33 30 43 40 18z m-596
-236 c0 -5 -5 -10 -11 -10 -5 0 -7 5 -4 10 3 6 8 10 11 10 2 0 4 -4 4 -10z
m-789 -43 c15 -11 15 -15 -7 -41 -42 -48 -72 -9 -32 42 13 15 19 15 39 -1z
m401 -1 c34 -1 36 -3 33 -28 -2 -15 1 -30 6 -33 5 -4 9 -2 9 3 0 6 9 8 20 5
11 -3 20 -9 20 -13 0 -7 -49 -8 -238 -1 l-44 1 7 33 c11 49 13 50 84 42 36 -4
83 -8 103 -9z m369 -19 c-10 -9 -11 -8 -5 6 3 10 9 15 12 12 3 -3 0 -11 -7
-18z m-614 -17 c3 -11 10 -17 17 -14 6 3 3 -1 -6 -9 -11 -8 -14 -17 -8 -23 6
-6 -6 -8 -30 -6 -43 4 -61 18 -36 28 9 3 16 15 16 25 0 26 40 25 47 -1z m303
10 c0 -5 -5 -10 -11 -10 -5 0 -7 5 -4 10 3 6 8 10 11 10 2 0 4 -4 4 -10z
m-1330 -124 c0 -3 -4 -8 -10 -11 -5 -3 -10 -1 -10 4 0 6 5 11 10 11 6 0 10 -2
10 -4z m105 -16 c3 -5 1 -10 -4 -10 -6 0 -11 5 -11 10 0 6 2 10 4 10 3 0 8 -4
11 -10z m688 -36 c-7 -19 -10 -18 -16 5 -3 13 -1 18 9 14 7 -2 10 -11 7 -19z
m-627 -16 c-9 -12 -16 -17 -16 -10 0 14 23 42 29 37 1 -2 -4 -14 -13 -27z
m1519 22 c-12 -4 -27 -15 -34 -24 -15 -18 -31 -12 -31 12 0 12 3 14 8 5 6 -10
12 -10 28 2 10 8 26 14 34 14 9 0 7 -3 -5 -9z m-857 -25 c-3 -3 -9 2 -12 12
-6 14 -5 15 5 6 7 -7 10 -15 7 -18z m360 14 c186 -20 182 -19 182 -37 0 -15
-2 -15 -10 -2 -8 13 -10 13 -10 -2 0 -9 5 -18 10 -20 7 -2 6 -10 -3 -22 -13
-17 -20 -18 -123 -6 -214 23 -194 18 -190 49 6 57 3 56 144 40z m-225 -5 c44
-6 45 -7 36 -32 -5 -14 -8 -31 -5 -37 3 -8 -12 -9 -58 -3 -125 16 -139 24
-109 57 19 21 59 25 136 15z m517 -33 c-5 -11 -25 -30 -42 -42 -32 -21 -31
-21 7 19 44 47 51 51 35 23z m3 -111 c20 0 37 -5 37 -11 0 -13 -86 -3 -110 13
-11 7 -9 8 10 4 14 -3 42 -6 63 -6z m-1423 -10 c0 -5 -5 -10 -11 -10 -5 0 -7
5 -4 10 3 6 8 10 11 10 2 0 4 -4 4 -10z m1505 0 c3 -5 -1 -10 -9 -10 -9 0 -16
5 -16 10 0 6 4 10 9 10 6 0 13 -4 16 -10z m80 0 c-28 -12 -65 -12 -65 0 0 6
19 10 43 9 32 0 37 -2 22 -9z m-165 -57 l35 -13 -40 6 c-22 3 -51 12 -65 20
l-25 14 30 -7 c17 -3 46 -12 65 -20z"/>
<path d="M1852 1815 c26 -14 53 -35 59 -47 12 -22 12 -22 -15 -5 -14 10 -56
21 -91 24 -54 5 -69 3 -85 -12 -11 -10 -20 -21 -20 -25 0 -12 58 -21 147 -23
46 -1 83 -5 83 -9 0 -5 5 -8 10 -8 6 0 10 19 10 43 -1 40 -3 43 -45 65 -25 12
-57 22 -72 22 -25 -1 -24 -3 19 -25z"/>
<path d="M1700 1809 c0 -5 5 -7 10 -4 6 3 10 8 10 11 0 2 -4 4 -10 4 -5 0 -10
-5 -10 -11z"/>
<path d="M2145 1793 c-41 -14 -65 -36 -65 -61 0 -10 5 -8 18 6 19 22 71 42
109 42 13 0 22 4 19 9 -10 16 -41 18 -81 4z"/>
<path d="M2123 1730 c-14 -6 -23 -18 -23 -31 0 -19 4 -21 35 -16 21 4 35 2 35
-5 0 -6 15 -8 35 -6 19 2 35 0 35 -4 0 -4 15 -6 33 -4 17 3 35 5 40 5 4 1 2
10 -5 21 -25 40 -129 62 -185 40z m135 -20 c46 -28 39 -32 -15 -8 -58 25 -62
28 -37 28 10 0 34 -9 52 -20z"/>
<path d="M1735 1680 c3 -5 18 -10 33 -10 21 0 24 2 12 10 -20 13 -53 13 -45 0z"/>
<path d="M1790 1650 c19 -13 30 -13 30 0 0 6 -10 10 -22 10 -19 0 -20 -2 -8
-10z"/>
<path d="M1870 1555 c-7 -9 -11 -18 -8 -20 3 -3 11 1 18 10 7 9 11 18 8 20 -3
3 -11 -1 -18 -10z"/>
<path d="M1830 1509 c0 -5 5 -7 10 -4 6 3 10 8 10 11 0 2 -4 4 -10 4 -5 0 -10
-5 -10 -11z"/>
<path d="M1865 1492 c-22 -4 -57 -66 -48 -88 3 -8 14 -14 24 -14 10 0 19 -6
19 -13 0 -16 65 -14 132 6 56 15 71 27 62 50 -5 13 -19 17 -56 17 -48 0 -83
12 -103 35 -5 6 -19 9 -30 7z"/>
<path d="M1727 1456 c-21 -6 -35 -15 -31 -19 4 -4 2 -7 -5 -7 -8 0 -7 -5 3
-16 15 -14 19 -13 47 10 17 14 35 26 40 26 5 0 9 5 9 10 0 12 -14 11 -63 -4z"/>
<path d="M1785 1380 c3 -5 8 -10 11 -10 2 0 4 5 4 10 0 6 -5 10 -11 10 -5 0
-7 -4 -4 -10z"/>
<path d="M2124 1117 c-28 -26 -55 -42 -64 -39 -13 5 -13 3 -1 -12 13 -16 19
-13 68 36 29 29 53 54 53 55 0 8 -12 -1 -56 -40z"/>
<path d="M2020 1100 c0 -5 5 -10 11 -10 5 0 7 5 4 10 -3 6 -8 10 -11 10 -2 0
-4 -4 -4 -10z"/>
<path d="M1308 433 c7 -3 16 -2 19 1 4 3 -2 6 -13 5 -11 0 -14 -3 -6 -6z"/>
<path d="M1340 421 c0 -16 41 -24 54 -11 8 10 6 11 -11 5 -14 -4 -23 -2 -23 4
0 6 -4 11 -10 11 -5 0 -10 -4 -10 -9z"/>
<path d="M960 219 c0 -5 5 -7 10 -4 6 3 10 8 10 11 0 2 -4 4 -10 4 -5 0 -10
-5 -10 -11z"/>
<path d="M2445 2290 c3 -5 11 -10 16 -10 6 0 7 5 4 10 -3 6 -11 10 -16 10 -6
0 -7 -4 -4 -10z"/>
<path d="M144 2235 c0 -14 7 -27 14 -30 6 -2 12 -9 12 -15 0 -14 -27 -13 -33
3 -3 6 -11 -2 -18 -20 -12 -31 -14 -31 -66 -26 l-53 6 0 -157 0 -156 104 0
103 0 6 40 c6 49 26 78 38 58 6 -9 9 -6 9 10 0 13 4 20 10 17 6 -3 10 4 10 15
0 19 4 21 28 15 37 -9 69 -41 99 -98 13 -27 27 -46 30 -43 11 10 -46 92 -108
155 -49 49 -70 64 -89 63 -14 -1 -38 1 -53 5 -25 8 -23 10 33 24 61 16 62 16
70 -5 4 -12 28 -35 51 -51 94 -61 127 -95 144 -146 10 -28 22 -52 29 -55 6 -2
115 0 241 4 l230 7 -3 23 c-4 29 13 28 44 -3 23 -23 44 -32 44 -19 0 3 -11 20
-25 38 -29 38 -31 46 -10 46 13 0 15 17 13 113 l-3 112 -60 -1 c-202 -5 -426
-7 -531 -6 -117 2 -121 3 -132 26 -14 31 -59 41 -97 22 -23 -12 -32 -13 -44
-3 -12 10 -12 12 2 15 20 4 21 14 5 30 -21 21 -46 14 -44 -13z m100 -61 c9
-24 7 -28 -9 -14 -17 14 -20 30 -6 30 5 0 12 -7 15 -16z m-40 0 c21 -8 20 -20
-1 -28 -17 -7 -36 12 -27 26 6 10 8 10 28 2z m-64 -44 c-18 -11 -24 -6 -16 16
5 14 9 15 19 5 9 -9 9 -14 -3 -21z m333 -63 c5 -43 6 -81 3 -84 -3 -3 -17 9
-31 26 -15 17 -33 31 -41 31 -16 0 -60 26 -84 49 -11 11 -12 15 -2 19 6 2 12
11 12 20 0 14 11 17 68 17 l67 0 8 -78z m557 73 c0 -5 -2 -10 -4 -10 -3 0 -8
5 -11 10 -3 6 -1 10 4 10 6 0 11 -4 11 -10z m-760 -10 c0 -5 -4 -10 -9 -10 -5
0 -24 -2 -42 -5 l-34 -5 30 14 c36 18 55 20 55 6z m689 -55 c-2 -67 -19 -93
-19 -30 0 29 -5 37 -25 45 -14 5 -25 14 -25 20 0 6 -32 10 -80 10 -64 0 -80
-3 -80 -15 0 -10 11 -15 35 -15 19 0 35 -4 35 -10 0 -6 26 -10 59 -10 38 0 61
-4 64 -12 2 -7 4 -40 3 -73 l-1 -60 -90 -1 c-85 0 -90 -2 -93 -22 -3 -21 0
-22 62 -22 36 0 66 -4 66 -9 0 -12 -348 -7 -360 5 -5 5 -12 64 -16 131 l-7
122 94 4 c52 1 158 4 237 5 l143 2 -2 -65z m68 13 c-3 -7 -5 -2 -5 12 0 14 2
19 5 13 2 -7 2 -19 0 -25z m-14 -17 c9 -36 -8 -105 -24 -96 -14 9 -12 138 3
133 7 -3 16 -19 21 -37z"/>
<path d="M1225 2110 c3 -5 8 -10 11 -10 2 0 4 5 4 10 0 6 -5 10 -11 10 -5 0
-7 -4 -4 -10z"/>
<path d="M1625 2110 c3 -5 8 -10 11 -10 2 0 4 5 4 10 0 6 -5 10 -11 10 -5 0
-7 -4 -4 -10z"/>
<path d="M270 1906 c0 -8 42 -76 47 -76 2 0 1 5 -2 10 -3 6 -1 10 4 10 6 0 2
9 -9 20 -11 11 -20 25 -20 30 0 6 -4 10 -10 10 -5 0 -10 -2 -10 -4z"/>
<path d="M993 1819 c-5 -17 -15 -19 -89 -19 -61 0 -84 -3 -84 -12 0 -10 32
-14 119 -16 113 -4 118 -3 124 17 4 15 -1 25 -16 33 -34 19 -49 18 -54 -3z"/>
<path d="M632 1801 c-24 -4 -37 -15 -52 -43 l-20 -38 27 -6 c15 -4 34 -15 43
-25 8 -10 28 -20 45 -21 24 -2 32 2 44 27 8 17 18 33 24 36 10 7 -4 38 -29 63
-16 17 -27 18 -82 7z"/>
<path d="M520 1785 c0 -10 10 -15 30 -15 22 0 28 4 24 15 -4 8 -17 15 -30 15
-15 0 -24 -6 -24 -15z"/>
<path d="M35 1780 l30 -8 -32 -1 c-18 0 -33 -5 -33 -10 0 -5 12 -8 28 -6 15 2
36 4 46 4 20 1 20 1 0 16 -10 8 -30 14 -44 13 -23 0 -23 -1 5 -8z"/>
</g>
</svg>
