<?xml version="1.0" standalone="no"?>
<!DOCTYPE svg PUBLIC "-//W3C//DTD SVG 20010904//EN"
 "http://www.w3.org/TR/2001/REC-SVG-20010904/DTD/svg10.dtd">
<svg version="1.0" xmlns="http://www.w3.org/2000/svg"
 width="16.000000pt" height="16.000000pt" viewBox="0 0 16.000000 16.000000"
 preserveAspectRatio="xMidYMid meet">
<metadata>
Created by potrace 1.11, written by Peter Selinger 2001-2013
</metadata>
<g transform="translate(0.000000,16.000000) scale(0.001882,-0.001882)"
fill="#000000" stroke="none">
<path d="M4039 8276 c-2 -2 -52 -7 -112 -10 -59 -4 -115 -9 -125 -10 -9 -2
-44 -7 -77 -10 -64 -8 -114 -15 -149 -22 -11 -2 -34 -6 -51 -9 -72 -13 -146
-28 -220 -47 -44 -11 -87 -21 -95 -23 -36 -7 -144 -41 -260 -80 -494 -169
-900 -399 -1305 -741 -330 -277 -670 -681 -860 -1019 -15 -27 -41 -72 -57
-100 -15 -27 -53 -102 -84 -165 -31 -63 -59 -122 -64 -131 -10 -20 -61 -145
-93 -229 -46 -118 -108 -311 -106 -330 0 -3 -4 -17 -10 -33 -13 -33 -67 -265
-75 -322 -3 -22 -8 -51 -10 -65 -36 -192 -51 -379 -51 -665 0 -297 18 -501 66
-740 11 -55 23 -111 25 -125 3 -14 20 -83 39 -155 124 -467 341 -925 624
-1315 30 -41 57 -77 61 -80 3 -3 19 -23 35 -46 75 -103 185 -226 350 -388 248
-245 530 -458 830 -628 274 -155 566 -277 895 -373 124 -36 410 -94 545 -110
28 -4 60 -8 71 -10 166 -26 789 -27 919 -1 11 2 45 7 75 10 30 4 66 8 80 11
14 2 54 9 90 15 512 87 1041 295 1490 589 98 64 355 251 370 270 3 3 34 31 70
61 96 81 335 321 426 430 264 312 491 679 634 1025 23 55 48 114 55 130 39 88
151 458 171 565 29 152 54 296 59 343 4 32 8 67 10 78 27 141 27 677 0 904
-44 362 -124 686 -252 1015 -54 139 -246 533 -273 560 -3 3 -11 16 -19 30 -41
70 -82 134 -96 150 -8 9 -15 20 -15 23 0 14 -155 220 -257 343 -111 132 -316
343 -418 429 -32 28 -70 61 -84 74 -38 34 -274 209 -361 267 -178 118 -369
222 -600 326 -71 33 -345 138 -358 138 -5 0 -44 11 -86 25 -140 46 -412 107
-573 130 -23 3 -57 8 -75 11 -32 4 -84 10 -193 20 -59 6 -521 14 -526 10z
m427 -2069 c10 -3 46 -9 79 -12 122 -13 299 -62 460 -127 55 -23 108 -48 118
-56 9 -8 17 -12 17 -9 0 9 134 -69 224 -131 150 -102 310 -249 411 -377 22
-27 43 -52 46 -55 4 -3 36 -50 72 -105 78 -120 147 -251 188 -360 16 -44 34
-89 38 -100 15 -35 58 -202 67 -258 3 -23 12 -80 19 -127 13 -85 14 -432 1
-495 -9 -44 -18 -97 -21 -121 -2 -11 -13 -61 -25 -110 -92 -366 -298 -711
-581 -969 -85 -78 -294 -235 -312 -235 -3 0 -35 -18 -72 -39 -37 -22 -106 -56
-154 -76 -47 -20 -95 -40 -106 -45 -38 -18 -245 -74 -315 -86 -14 -2 -34 -6
-45 -9 -83 -18 -380 -27 -520 -16 -116 9 -325 53 -420 88 -187 69 -272 108
-385 175 -254 153 -489 378 -646 618 -67 104 -67 103 -122 215 -75 152 -150
376 -168 500 -2 17 -6 40 -8 53 -20 100 -28 396 -13 527 39 361 193 729 426
1020 152 190 382 383 580 487 30 16 60 33 66 37 5 4 60 28 120 53 201 83 378
129 565 144 41 4 76 8 78 9 6 5 318 -2 338 -8z"/>
</g>
</svg>
