<?xml version="1.0" encoding="utf-8"?>
<!-- Generator: Adobe Illustrator 21.0.0, SVG Export Plug-In . SVG Version: 6.00 Build 0)  -->
<svg version="1.1" id="Layer_1" xmlns="http://www.w3.org/2000/svg" xmlns:xlink="http://www.w3.org/1999/xlink" x="0px" y="0px"
	 width="388.5px" height="38.8px" viewBox="0 0 388.5 38.8" style="enable-background:new 0 0 388.5 38.8;" xml:space="preserve">
<g>
	<g>
		<path d="M1.9,27c-0.3,0.8,0.5-0.4,0.9-0.7c0.8-0.7,1.5-1.4,2.3-2c2.6-2.1,5.3-4,8.1-5.8c7-4.5,15-8.5,23.4-9.2
			c10-0.8,16.3,5.3,23.8,10.9c8.3,6.2,16.9,12.4,26.8,15.9c16.4,5.7,33.2,1.8,45.8-9.7c5.1-4.6,9.6-9.9,15.3-13.9
			c6.5-4.5,13.9-6.2,21.8-5.5c8.9,0.9,18.9,3.9,25.8,9.8c4,3.4,6.2,7.7,8.8,12.1c6.7,11,18.8,11.5,30.6,10.7
			c15.2-1,29.2-4.9,39.4-16.7c7.9-9.2,13.5-18.6,26.6-20.4c11.9-1.6,24.8,1.1,36.2,4.3c7.9,2.2,15.4,5.2,22.1,10
			c4,2.8,7.5,6.3,11.7,8.7c5.2,2.9,11.1,3.7,17,3.8c1.9,0,1.9-3,0-3c-5.7,0-11.3-0.8-16.3-3.8c-3.9-2.4-7.2-5.6-11-8.2
			c-13.9-9.9-32.8-14-49.5-14.9c-13.4-0.8-24.1,2.9-32.5,13.4c-3.5,4.4-6.8,9-11,12.7c-6,5.3-13.4,8.3-21.2,9.9
			c-9.3,1.8-20.9,3.1-30.1,0.2c-5.1-1.6-7.9-5.1-10.5-9.5c-2.5-4.4-5.1-8.4-9.1-11.7C191.2,9,183,6.2,175.1,4.7
			c-15.4-2.9-26.7,2.6-37.5,13.1c-5.1,4.9-10,10.1-16.3,13.4c-9.7,5.2-21.6,5.6-31.9,2.3c-12.1-3.9-22.3-12.1-32.3-19.7
			C49.4,8.1,42.8,5,33,6.8c-8.6,1.6-16.6,5.9-23.7,10.7c-2.8,1.9-9,5.2-10.2,8.7C-1.6,28,1.3,28.8,1.9,27L1.9,27z"/>
	</g>
</g>
</svg>
