<svg xmlns="http://www.w3.org/2000/svg" width="570.3" height="91.1" viewBox="0 0 570.3 91.1"><style>.st0{opacity:0.5;fill:none;stroke:#0071BC;stroke-width:2;stroke-miterlimit:10;} .st1{opacity:0.5;fill:none;stroke:#00FFFF;stroke-width:6;stroke-miterlimit:10;} .st2{opacity:0.59;fill:none;stroke:#FFFFFF;stroke-miterlimit:10;}</style><g id="Back_Glow"><path class="st0" d="M84.8 20.6v-17h-45S24.3 5.1 12.3 29.1c0 0-8 21 1 36s26 23 26 23h46v-18h-41s-12-4-16-22c0 0-4-16 18-27l38.5-.5z"/><path class="st0" d="M56.3 38.1h29v32zM369.8 20.6v-17h-45s-15.5 1.5-27.5 25.5c0 0-8 21 1 36s26 23 26 23h46v-18h-41s-12-4-16-22c0 0-4-16 18-27l38.5-.5z"/><path class="st0" d="M341.3 38.1h29v32zM146.3 3.1s-18-2-34 16-5 46-3 47c0 0 14 22 37 22s35-16 39-27 5-28-6-43-33-15-33-15z"/><path class="st0" d="M146.3 21.1s-21-1-23 23 23 25 23 25 21 4 24-24c0 0-1-23-24-24zM241.3 3.1s-18-2-34 16-5 46-3 47c0 0 14 22 37 22s35-16 39-27 5-28-6-43-33-15-33-15z"/><path class="st0" d="M241.3 21.1s-21-1-23 23 23 25 23 25 21 4 24-24c0 0-1-23-24-24zM424.3 3.1h-37v85h68v-18h-31zM482.3 3.1h87v18h-87zM514.3 54.1v-18h-32v52h87v-18h-68v-16z"/></g><g id="Blue_Glow"><path class="st1" d="M78.8 20.6v-17h-45S18.3 5.1 6.3 29.1c0 0-8 21 1 36s26 23 26 23h46v-18h-41s-12-4-16-22c0 0-4-16 18-27l38.5-.5z"/><path class="st1" d="M50.3 38.1h29v32zM363.8 20.6v-17h-45s-15.5 1.5-27.5 25.5c0 0-8 21 1 36s26 23 26 23h46v-18h-41s-12-4-16-22c0 0-4-16 18-27l38.5-.5z"/><path class="st1" d="M335.3 38.1h29v32zM140.3 3.1s-18-2-34 16-5 46-3 47c0 0 14 22 37 22s35-16 39-27 5-28-6-43-33-15-33-15z"/><path class="st1" d="M140.3 21.1s-21-1-23 23 23 25 23 25 21 4 24-24c0 0-1-23-24-24zM235.3 3.1s-18-2-34 16-5 46-3 47c0 0 14 22 37 22s35-16 39-27 5-28-6-43-33-15-33-15z"/><path class="st1" d="M235.3 21.1s-21-1-23 23 23 25 23 25 21 4 24-24c0 0-1-23-24-24zM418.3 3.1h-37v85h68v-18h-31zM476.3 3.1h87v18h-87zM508.3 54.1v-18h-32v52h87v-18h-68v-16z"/></g><g id="White_Glow"><path class="st2" d="M78.8 20.6v-17h-45S18.3 5.1 6.3 29.1c0 0-8 21 1 36s26 23 26 23h46v-18h-41s-12-4-16-22c0 0-4-16 18-27l38.5-.5z"/><path class="st2" d="M50.3 38.1h29v32zM363.8 20.6v-17h-45s-15.5 1.5-27.5 25.5c0 0-8 21 1 36s26 23 26 23h46v-18h-41s-12-4-16-22c0 0-4-16 18-27l38.5-.5z"/><path class="st2" d="M335.3 38.1h29v32zM140.3 3.1s-18-2-34 16-5 46-3 47c0 0 14 22 37 22s35-16 39-27 5-28-6-43-33-15-33-15z"/><path class="st2" d="M140.3 21.1s-21-1-23 23 23 25 23 25 21 4 24-24c0 0-1-23-24-24zM235.3 3.1s-18-2-34 16-5 46-3 47c0 0 14 22 37 22s35-16 39-27 5-28-6-43-33-15-33-15z"/><path class="st2" d="M235.3 21.1s-21-1-23 23 23 25 23 25 21 4 24-24c0 0-1-23-24-24zM418.3 3.1h-37v85h68v-18h-31zM476.3 3.1h87v18h-87zM508.3 54.1v-18h-32v52h87v-18h-68v-16z"/></g></svg>