<?xml version="1.0" encoding="utf-8"?>
<!-- Generator: Adobe Illustrator 21.0.0, SVG Export Plug-In . SVG Version: 6.00 Build 0)  -->
<svg version="1.1" xmlns="http://www.w3.org/2000/svg" xmlns:xlink="http://www.w3.org/1999/xlink" x="0px" y="0px"
	 viewBox="0 0 612.5 100" style="enable-background:new 0 0 612.5 100;" xml:space="preserve">
<style type="text/css">
	.st0{opacity:0.59;fill:none;stroke:#F2F2F2;stroke-width:4;stroke-miterlimit:10;}
	.st1{opacity:0.59;fill:none;stroke:#29ABE2;stroke-width:9;stroke-miterlimit:10;}
	.st2{opacity:0.59;fill:none;stroke:#FFFFFF;stroke-width:2;stroke-miterlimit:10;}
</style>
<g id="back_glow">
	<path class="st0" d="M92.4,23.8V4.5H44.3c0,0-26.8,5.4-33.2,41.7c0,0-1.1,8.6,2.1,19.3c0,0,2.1,16.1,30,30h49.2V76.2h-45
		c0,0-18.2-8.6-16.1-30c0,0-1.1-12.8,19.3-22.5H92.4z"/>
	<polygon class="st0" points="61.4,42 92.4,42 92.4,76.2 	"/>
	<circle class="st0" cx="157.2" cy="50" r="45.5"/>
	<circle class="st0" cx="158.3" cy="50" r="26.2"/>
	<circle class="st0" cx="258.9" cy="50" r="45.5"/>
	<path class="st0" d="M397.5,23.8V4.5h-48.2c0,0-26.8,5.4-33.2,41.7c0,0-1.1,8.6,2.1,19.3c0,0,2.1,16.1,30,30h49.2V76.2h-45
		c0,0-18.2-8.6-16.1-30c0,0-1.1-12.8,19.3-22.5H397.5z"/>
	<circle class="st0" cx="260" cy="50" r="26.2"/>
	<polygon class="st0" points="366.5,42 397.5,42 397.5,76.2 	"/>
	<polygon class="st0" points="415.7,4.5 415.7,95.5 489.5,95.5 489.5,76.2 455.3,76.2 455.3,4.5 	"/>
	<rect x="517.4" y="4.5" class="st0" width="93.1" height="19.3"/>
	<polygon class="st0" points="517.4,39.8 517.4,95.5 610.5,95.5 610.5,76.2 537.7,76.2 537.7,59.1 551.6,59.1 551.6,39.8 	"/>
</g>
<g id="Front_glow">
	<path class="st1" d="M86,23.8V4.5H37.9c0,0-26.8,5.4-33.2,41.7c0,0-1.1,8.6,2.1,19.3c0,0,2.1,16.1,30,30H86V76.2h-45
		c0,0-18.2-8.6-16.1-30c0,0-1.1-12.8,19.3-22.5H86z"/>
	<polygon class="st1" points="55,42 86,42 86,76.2 	"/>
	<circle class="st1" cx="150.8" cy="50" r="45.5"/>
	<circle class="st1" cx="151.8" cy="50" r="26.2"/>
	<circle class="st1" cx="252.5" cy="50" r="45.5"/>
	<path class="st1" d="M391.1,23.8V4.5h-48.2c0,0-26.8,5.4-33.2,41.7c0,0-1.1,8.6,2.1,19.3c0,0,2.1,16.1,30,30h49.2V76.2h-45
		c0,0-18.2-8.6-16.1-30c0,0-1.1-12.8,19.3-22.5H391.1z"/>
	<circle class="st1" cx="253.5" cy="50" r="26.2"/>
	<polygon class="st1" points="360,42 391.1,42 391.1,76.2 	"/>
	<polygon class="st1" points="409.3,4.5 409.3,95.5 483.1,95.5 483.1,76.2 448.9,76.2 448.9,4.5 	"/>
	<rect x="511" y="4.5" class="st1" width="93.1" height="19.3"/>
	<polygon class="st1" points="511,39.8 511,95.5 604.1,95.5 604.1,76.2 531.3,76.2 531.3,59.1 545.2,59.1 545.2,39.8 	"/>
	<g id="Layer_4">
		<g id="Layer_5">
		</g>
	</g>
</g>
<g id="White_glow">
	<path class="st2" d="M86,24.8V5.6H37.9c0,0-26.8,5.4-33.2,41.7c0,0-1.1,8.6,2.1,19.3c0,0,2.1,16.1,30,30H86V77.3h-45
		c0,0-18.2-8.6-16.1-30c0,0-1.1-12.8,19.3-22.5H86z"/>
	<polygon class="st2" points="55,43 86,43 86,77.3 	"/>
	<circle class="st2" cx="150.8" cy="51.1" r="45.5"/>
	<circle class="st2" cx="151.8" cy="51.1" r="26.2"/>
	<circle class="st2" cx="252.5" cy="51.1" r="45.5"/>
	<path class="st2" d="M391.1,24.8V5.6h-48.2c0,0-26.8,5.4-33.2,41.7c0,0-1.1,8.6,2.1,19.3c0,0,2.1,16.1,30,30h49.2V77.3h-45
		c0,0-18.2-8.6-16.1-30c0,0-1.1-12.8,19.3-22.5H391.1z"/>
	<circle class="st2" cx="253.5" cy="51.1" r="26.2"/>
	<polygon class="st2" points="360,43 391.1,43 391.1,77.3 	"/>
	<polygon class="st2" points="409.3,5.6 409.3,96.6 483.1,96.6 483.1,77.3 448.9,77.3 448.9,5.6 	"/>
	<rect x="511" y="5.6" class="st2" width="93.1" height="19.3"/>
	<polygon class="st2" points="511,40.9 511,96.6 604.1,96.6 604.1,77.3 531.3,77.3 531.3,60.2 545.2,60.2 545.2,40.9 	"/>
</g>
</svg>
