<svg xmlns="http://www.w3.org/2000/svg" width="1366" height="768" viewBox="0 0 1366 768"><style>.st0{opacity:0.17;stroke:#FFFFFF;stroke-miterlimit:10;} .st1{fill:none;stroke:#CEF6F4;stroke-width:3;stroke-miterlimit:10;} .st2{fill:none;} .st3{fill:#A3E6E6;} .st4{font-family:&apos;OCRAStd&apos;;} .st5{font-size:12px;} .st6{letter-spacing:27;}</style><path class="st0" d="M397.5 16.5h502v743h-502z" id="background"/><path class="st1" d="M888.5 17.5h10v739h-10z" id="sidebar"/><g id="words"><path class="st2" d="M406 33.4h477.2v716.7H406z"/><text transform="translate(406.022 42.274)"><tspan x="0" y="0" class="st3 st4 st5">$ whoami</tspan><tspan x="0" y="14.4" class="st3 st4 st5">flynn</tspan><tspan x="0" y="28.8" class="st3 st4 st5">$uname -a</tspan><tspan x="0" y="43.2" class="st3 st4 st5">SolarOS 4.0.1 Generic_50203-02 sun4m i386</tspan><tspan x="0" y="57.6" class="st3 st4 st5">Unkown.Unknown</tspan><tspan x="0" y="72" class="st3 st4 st5">$ login -n root</tspan><tspan x="0" y="86.4" class="st3 st4 st5">Login incorrect</tspan><tspan x="0" y="100.8" class="st3 st4 st5">login: backdoor</tspan><tspan x="0" y="115.2" class="st3 st4 st5">No home directory specified in password file!</tspan><tspan x="0" y="129.6" class="st3 st4 st5">Logging in with home=/</tspan><tspan x="0" y="144" class="st3 st4 st5"># bin/history</tspan><tspan x="0" y="158.4" class="st3 st4 st5 st6"> </tspan><tspan x="36" y="158.4" class="st3 st4 st5">488 cd/opt/LLL/controller/laser/</tspan><tspan x="0" y="172.8" class="st3 st4 st5 st6"> </tspan><tspan x="36" y="172.8" class="st3 st4 st5">489 viLLLSDLaserControl.c</tspan><tspan x="252" y="172.8" class="st3 st4 st5 st6"> </tspan><tspan x="0" y="187.2" class="st3 st4 st5 st6"> </tspan><tspan x="36" y="187.2" class="st3 st4 st5">490 make</tspan><tspan x="0" y="201.6" class="st3 st4 st5 st6"> </tspan><tspan x="36" y="201.6" class="st3 st4 st5">491make install</tspan><tspan x="0" y="216" class="st3 st4 st5 st6"> </tspan><tspan x="36" y="216" class="st3 st4 st5">492./sanity_check</tspan><tspan x="0" y="230.4" class="st3 st4 st5 st6"> </tspan><tspan x="36" y="230.4" class="st3 st4 st5">493 ./configure-o test.cfg</tspan><tspan x="0" y="244.8" class="st3 st4 st5 st6"> </tspan><tspan x="36" y="244.8" class="st3 st4 st5">494 vi test.cfg</tspan><tspan x="0" y="259.2" class="st3 st4 st5 st6"> </tspan><tspan x="36" y="259.2" class="st3 st4 st5">495 vi`/last_will_and_testament.txt</tspan><tspan x="0" y="273.6" class="st3 st4 st5 st6"> </tspan><tspan x="36" y="273.6" class="st3 st4 st5">496 cat /proc/meminfo</tspan><tspan x="0" y="288" class="st3 st4 st5 st6"> </tspan><tspan x="36" y="288" class="st3 st4 st5">497 ps -a -x -u</tspan><tspan x="0" y="302.4" class="st3 st4 st5 st6"> </tspan><tspan x="36" y="302.4" class="st3 st4 st5">498 kill -9 2207</tspan><tspan x="0" y="316.8" class="st3 st4 st5 st6"> </tspan><tspan x="36" y="316.8" class="st3 st4 st5">499 kill 2208</tspan><tspan x="0" y="331.2" class="st3 st4 st5 st6"> </tspan><tspan x="36" y="331.2" class="st3 st4 st5">500 ps -a -x -u</tspan><tspan x="0" y="345.6" class="st3 st4 st5 st6"> </tspan><tspan x="36" y="345.6" class="st3 st4 st5">501 touch /oft/LLL/run/ok</tspan><tspan x="0" y="360" class="st3 st4 st5 st6"> </tspan><tspan x="36" y="360" class="st3 st4 st5">502 LLLSDLaserControl -ok1</tspan><tspan x="0" y="374.4" class="st3 st4 st5 st6"> </tspan><tspan x="36" y="374.4" class="st3 st4 st5">503 w3b-2 p0j3c7_2</tspan><tspan x="0" y="388.8" class="st3 st4 st5 st6"> </tspan><tspan x="36" y="388.8" class="st3 st4 st5">504 run/p.&lt;colin&gt; </tspan><tspan x="0" y="417.6" class="st3 st4 st5">loading...</tspan><tspan x="0" y="446.4" class="st3 st4 st5">51das351g35ad1a351g35a1sdg351as35dg1a3s51ga51dgf1vfbad</tspan><tspan x="466.5" y="446.4" class="st3 st4 st5">-</tspan><tspan x="0" y="460.8" class="st3 st4 st5">kjfhbvaj dklfnbladnbdnflijsglinligjnlernlk</tspan><tspan x="362.9" y="460.8" class="st3 st4 st5">-</tspan><tspan x="0" y="475.2" class="st3 st4 st5">n&amp;%^&amp;R&amp;^546544164516846464641646468464341646464</tspan><tspan x="0" y="489.6" class="st3 st4 st5">(*^%^615646464fildjlsdnlijsdlmnalksdmglala;;];[’;</tspan><tspan x="0" y="504" class="st3 st4 st5">56184841-6-5155155345135*&amp;%&amp;^%^#$%@@$*&amp;^((*&amp;)(][];[&lt;&gt;&lt;&gt;</tspan><tspan x="0" y="518.4" class="st3 st4 st5">&lt;&gt;</tspan></text></g></svg>